<svg xmlns="http://www.w3.org/2000/svg" viewBox="0 0 1200 414" enable-background="new 0 0 1200 414"><defs><linearGradient id="3" gradientUnits="userSpaceOnUse" x1="127.05" y1="149.52" x2="167.17" y2="391.73"><stop offset=".006" stop-color="#008cd2"/><stop offset="1" stop-color="#00649d"/></linearGradient><linearGradient id="2" gradientUnits="userSpaceOnUse" y1="172.34" x2="0" y2="405.64"><stop offset=".006" stop-color="#ffe513"/><stop offset="1" stop-color="#fdb924"/></linearGradient><linearGradient id="0" gradientUnits="userSpaceOnUse" y1="136.86" x2="0" y2="403.15"><stop stop-color="#26a146"/><stop offset="1" stop-color="#008a52"/></linearGradient><linearGradient id="1" gradientUnits="userSpaceOnUse" x1="603.05" x2="889.56"><stop stop-color="#d92231"/><stop offset="1" stop-color="#ba2234"/></linearGradient></defs><path fill="#66bf6b" d="m1200 88.36v284.62l-39.3 38.35v-278.34z"/><path fill="url(#0)" d="m901.08 132.99h260.25v278.68h-260.25z"/><path fill="#98d0a0" d="m941.85 88.55l-40.77 44.44h260.25l38.67-44.63z"/><path fill="#ef463e" d="m619.52 100.75l255.99-35.58-21.41 61.38-242.53 38.46 1.04-43.87z"/><path fill="url(#1)" d="m854.1 126.55l35.46 249.66-252.43 35.47-34.08-241.37 14.74-11.52z"/><path fill="#760d16" d="m875.51 65.17l.2 1.5 33.2 255.65-19.35 53.89-35.46-249.66"/><path fill="url(#2)" d="m403.3 79.46l226.63 102.26-102.27 232.16-226.63-102.26z"/><path fill="#fff16d" d="m379.77 0l23.53 79.46 226.63 102.26-19.06-75.93z"/><path fill="#e79225" d="m379.77 0l-91.22 216.49 12.48 95.13 102.27-232.16z"/><path fill="url(#3)" d="M253.34 126.19 290.69 371.86 40.23 411.13 0 164.98z"/><path fill="#91c9ed" d="m0 164.98l17.589-87.72 252.89-40.534-17.14 89.46z"/><path fill="#009ada" d="m270.48 36.726l37.07 248.04-16.86 87.09-37.35-245.67z"/><path fill="#fff" d="m1121.62 233.25c-5.151-12.94-12.774-24.542-22.856-34.778-9.649-9.84-20.498-17.267-32.472-22.251-11.992-4.988-24.951-7.476-38.872-7.473-14.02-.002-27.1 2.485-39.18 7.47-12.08 4.986-22.917 12.418-32.477 22.258-10.07 10.136-17.66 21.697-22.701 34.633-5.04 12.948-7.565 27.07-7.565 42.35 0 15.08 2.532 29.15 7.646 42.18 5.089 13.04 12.642 24.738 22.621 35.07 9.354 9.663 20.08 16.974 32.1 21.905 12.03 4.927 25.23 7.396 39.556 7.396 13.81 0 26.755-2.469 38.78-7.396 12.03-4.929 22.903-12.234 32.557-21.893 10.09-10.342 17.712-22.01 22.863-35 5.152-12.982 7.729-27.08 7.729-42.26 0-15.181-2.576-29.26-7.729-42.2m-53.49 91.83c-9.972 12.05-23.398 18.03-40.732 18.05-17.451-.02-30.934-5.98-40.961-17.97-9.997-11.999-15.06-28.495-15.06-49.669.006-21.577 5.05-38.32 14.99-50.41 9.969-12.09 23.49-18.09 41.03-18.11 17.334.023 30.756 6.02 40.732 18.11 9.948 12.09 14.999 28.835 14.999 50.41 0 21.07-5.04 37.553-14.999 49.589m-900.45-56.47h.005c-.005.0001-.005.006-.007.009h-.005l.007-.008m58.75 64.13c-1.975-2.358-4.632-4.102-7.87-5.233-3.33-1.163-7.355-1.723-12.1-1.723-4.468 0-9.573.497-15.334 1.484l-66.11 11.299c.7-5.094 3.229-11.789 7.69-19.948 4.981-9.141 12.326-20.12 22.03-32.902l.006-.006c3.329-4.449 5.874-7.848 7.632-10.193 1.263-1.565 3.02-3.865 5.299-6.904 15.12-19.84 24.482-35.993 28.07-48.671 2.052-7.188 3.302-14.432 3.754-21.727.123-1.997.18-3.978.18-5.946 0-5.228-.428-10.376-1.294-15.441-.787-4.615-1.923-8.454-3.446-11.535-1.523-3.076-3.458-5.414-5.845-6.889-2.692-1.64-6.479-2.334-11.435-2.344-4.091 0-8.996.497-14.738 1.476l-76.4 13.07c-9.252 1.584-16.08 4.308-20.441 8.411-3.465 3.251-5.254 7.46-5.236 12.29 0 1.262.115 2.567.349 3.916 1.075 6.493 4.457 11.251 9.912 13.673 3.219 1.453 7.109 2.146 11.649 2.147 3.092-.0001 6.489-.323 10.2-.956l63.941-10.783c.108 1.131.184 2.258.184 3.377 0 3.994-.692 7.895-2.079 11.737-1.897 5.292-6.641 12.857-14.197 22.476-2.143 2.626-5.422 6.717-9.842 12.26-17.243 20.889-29.594 38.698-37.07 53.51 0 .007-.0001.007-.005.014 0 0 0 .006-.002.006-5.305 10.196-8.987 20.241-11.01 30.13-1.175 5.769-1.77 11.304-1.77 16.616 0 3.805.305 7.486.915 11.05.876 5.114 2.138 9.333 3.838 12.675 1.701 3.328 3.87 5.815 6.547 7.288 2.492 1.352 6.155 1.886 11.197 1.901 6.401 0 15.02-.942 25.923-2.804l69.32-11.852c12.275-2.113 20.811-5.04 25.773-9.114 3.965-3.255 6.02-7.727 5.998-12.993 0-1.332-.123-2.709-.371-4.139-.584-3.421-1.853-6.351-3.827-8.706m314.38-166.04c-8.904-9.39-19.72-16.775-32.405-22.16-12.589-5.349-25.32-8.02-38.15-8.02l-.591.002c-13.03.084-25.901 2.985-38.589 8.677v-.005c-13.283 5.781-24.858 13.871-34.68 24.26-9.822 10.382-17.82 22.872-23.995 37.42-6.091 14.378-9.473 28.763-10.1 43.15-.073 1.627-.107 3.256-.107 4.878 0 12.697 2.178 25.14 6.528 37.29 4.615 12.831 11.422 23.938 20.396 33.3 8.971 9.361 20.01 16.812 33.06 22.338v-.004c12.489 5.307 25.17 7.962 38.02 7.955h.329c12.957-.06 25.806-2.835 38.511-8.293l.011-.005.007-.005c13.364-5.965 25.02-14.161 34.958-24.538 9.933-10.387 17.965-22.84 24.1-37.31 6.138-14.463 9.481-28.864 10.03-43.19.052-1.382.077-2.759.077-4.133 0-12.881-2.274-25.503-6.83-37.848-4.817-13.12-11.689-24.39-20.59-33.778m-24.826 101.13c-8.54 20.11-19.813 33.912-33.762 41.558-7.475 4.097-15.14 6.122-23.06 6.125-6.885 0-13.982-1.537-21.312-4.641-15.861-6.762-25.741-17.629-30.02-32.955-1.431-5.143-2.15-10.549-2.15-16.23 0-11.25 2.824-23.592 8.519-37.02 8.733-20.592 20.13-34.639 34.09-42.33 7.455-4.109 15.12-6.15 23.07-6.15 6.961 0 14.155 1.556 21.606 4.72 15.76 6.706 25.541 17.596 29.741 32.993 1.364 5.03 2.053 10.333 2.053 15.911.002 11.49-2.903 24.17-8.779 38.02m295.17-93.45c-1.141-7.754-3.788-13.668-8.08-17.545-3.411-3.095-7.704-4.659-12.595-4.649-1.249 0-2.533.1-3.867.294-6.555.941-11.572 3.977-14.648 8.989-2.238 3.621-3.323 7.988-3.323 13.01 0 1.924.161 3.951.475 6.078l9.208 64.963-72.58 10.682-9.208-64.976c-1.114-7.554-3.724-13.41-7.958-17.391-3.419-3.228-7.682-4.876-12.488-4.864-1.135 0-2.3.089-3.49.265-6.831.984-12.03 3.963-15.193 8.9-2.292 3.555-3.396 7.943-3.396 13.05 0 1.961.166 4.03.483 6.216l24.834 168.95c1.139 7.769 3.857 13.671 8.321 17.486 3.484 2.981 7.85 4.48 12.852 4.471 1.367 0 2.788-.107 4.254-.325 6.249-.903 11.08-3.927 13.986-8.932 2.086-3.557 3.1-7.831 3.1-12.723 0-1.957-.159-4.01-.477-6.159l-10.148-66.751 72.58-10.666 10.154 66.748c1.117 7.667 3.806 13.536 8.211 17.402 3.496 3.076 7.821 4.624 12.723 4.614 1.26 0 2.55-.094 3.883-.29 6.527-.95 11.527-3.939 14.513-8.912 2.151-3.546 3.188-7.845 3.188-12.801 0-1.962-.157-4.03-.475-6.193l-24.837-168.95"/></svg>